HIERARCHY
ROOT Hips
{
  OFFSET -2.65975 101.343 4.61839
  CHANNELS 6 Xposition Yposition Zposition Zrotation Xrotation Yrotation
  JOINT Spine
  {
    OFFSET 0 10.1816 0.1315
    CHANNELS 6 Xposition Yposition Zposition Zrotation Xrotation Yrotation
    JOINT Spine1
    {
      OFFSET 0 10.0835 -1.0008
      CHANNELS 6 Xposition Yposition Zposition Zrotation Xrotation Yrotation
      JOINT Spine2
      {
        OFFSET 0 9.1 -1.3734
        CHANNELS 6 Xposition Yposition Zposition Zrotation Xrotation Yrotation
        JOINT Neck1
        {
          OFFSET 0 16.6717 -2.5162
          CHANNELS 6 Xposition Yposition Zposition Zrotation Xrotation Yrotation
          JOINT Neck2
          {
            OFFSET 0 9.6179 1.685
            CHANNELS 6 Xposition Yposition Zposition Zrotation Xrotation Yrotation
            JOINT Skull
            {
              OFFSET 0 7.59293 2.585
              CHANNELS 6 Xposition Yposition Zposition Zrotation Xrotation Yrotation
              End Site
              {
                OFFSET 0 0 0
              }
            }
          }
        }
        JOINT LeftShoulder
        {
          OFFSET 4.5704 10.946 -2.628
          CHANNELS 6 Xposition Yposition Zposition Zrotation Xrotation Yrotation
          JOINT LeftArm
          {
            OFFSET 10.5924 -0.5246 -2.2321
            CHANNELS 6 Xposition Yposition Zposition Zrotation Xrotation Yrotation
            JOINT LeftForeArm
            {
              OFFSET 27.8415 -0.0001 0
              CHANNELS 6 Xposition Yposition Zposition Zrotation Xrotation Yrotation
              JOINT LeftHand
              {
                OFFSET 28.3288 0 0
                CHANNELS 6 Xposition Yposition Zposition Zrotation Xrotation Yrotation
                JOINT LeftHandThumb1
                {
                  OFFSET 2.4661 -1.575 2.6824
                  CHANNELS 6 Xposition Yposition Zposition Zrotation Xrotation Yrotation
                  JOINT LeftHandThumb2
                  {
                    OFFSET 3.2298 -1.8647 1.8647
                    CHANNELS 6 Xposition Yposition Zposition Zrotation Xrotation Yrotation
                    End Site
                    {
                      OFFSET 2.6526 -1.5315 1.5315
                    }
                  }
                }
                JOINT LeftHandIndex1
                {
                  OFFSET 9.1093 -0.5171 2.2601
                  CHANNELS 6 Xposition Yposition Zposition Zrotation Xrotation Yrotation
                  JOINT LeftHandIndex2
                  {
                    OFFSET 3.6764 0 0
                    CHANNELS 6 Xposition Yposition Zposition Zrotation Xrotation Yrotation
                    End Site
                    {
                      OFFSET 2.8831 0 0
                    }
                  }
                }
                JOINT LeftHandMiddle1
                {
                  OFFSET 9.5334 0 0
                  CHANNELS 6 Xposition Yposition Zposition Zrotation Xrotation Yrotation
                  JOINT LeftHandMiddle2
                  {
                    OFFSET 3.6982 0 0
                    CHANNELS 6 Xposition Yposition Zposition Zrotation Xrotation Yrotation
                    End Site
                    {
                      OFFSET 2.9509 0 0
                    }
                  }
                }
                JOINT LeftHandRing1
                {
                  OFFSET 9.1045 -0.0439 -1.8651
                  CHANNELS 6 Xposition Yposition Zposition Zrotation Xrotation Yrotation
                  JOINT LeftHandRing2
                  {
                    OFFSET 3.154 0 0
                    CHANNELS 6 Xposition Yposition Zposition Zrotation Xrotation Yrotation
                    End Site
                    {
                      OFFSET 2.9377 0 0
                    }
                  }
                }
                JOINT LeftHandPinky1
                {
                  OFFSET 8.0778 -0.4887 -3.8061
                  CHANNELS 6 Xposition Yposition Zposition Zrotation Xrotation Yrotation
                  JOINT LeftHandPinky2
                  {
                    OFFSET 3.6 0 0
                    CHANNELS 6 Xposition Yposition Zposition Zrotation Xrotation Yrotation
                    End Site
                    {
                      OFFSET 2.1142 0 0
                    }
                  }
                }
              }
            }
          }
        }
        JOINT RightShoulder
        {
          OFFSET -4.57 10.9462 -2.628
          CHANNELS 6 Xposition Yposition Zposition Zrotation Xrotation Yrotation
          JOINT RightArm
          {
            OFFSET -10.5928 -0.5248 -2.2321
            CHANNELS 6 Xposition Yposition Zposition Zrotation Xrotation Yrotation
            JOINT RightForeArm
            {
              OFFSET -27.8415 0 0
              CHANNELS 6 Xposition Yposition Zposition Zrotation Xrotation Yrotation
              JOINT RightHand
              {
                OFFSET -28.3288 0 0.0001
                CHANNELS 6 Xposition Yposition Zposition Zrotation Xrotation Yrotation
                JOINT RightHandPinky1
                {
                  OFFSET -8.0767 -0.4885 -3.806
                  CHANNELS 6 Xposition Yposition Zposition Zrotation Xrotation Yrotation
                  JOINT RightHandPinky2
                  {
                    OFFSET -3.6 0 0.0001
                    CHANNELS 6 Xposition Yposition Zposition Zrotation Xrotation Yrotation
                    End Site
                    {
                      OFFSET -2.1142 0 0
                    }
                  }
                }
                JOINT RightHandRing1
                {
                  OFFSET -9.1036 -0.0439 -1.8651
                  CHANNELS 6 Xposition Yposition Zposition Zrotation Xrotation Yrotation
                  JOINT RightHandRing2
                  {
                    OFFSET -3.154 0 0
                    CHANNELS 6 Xposition Yposition Zposition Zrotation Xrotation Yrotation
                    End Site
                    {
                      OFFSET -2.9377 0 0
                    }
                  }
                }
                JOINT RightHandMiddle1
                {
                  OFFSET -9.5325 0 0
                  CHANNELS 6 Xposition Yposition Zposition Zrotation Xrotation Yrotation
                  JOINT RightHandMiddle2
                  {
                    OFFSET -3.6982 0 0
                    CHANNELS 6 Xposition Yposition Zposition Zrotation Xrotation Yrotation
                    End Site
                    {
                      OFFSET -2.9509 0 0
                    }
                  }
                }
                JOINT RightHandIndex1
                {
                  OFFSET -9.1083 -0.5168 2.2601
                  CHANNELS 6 Xposition Yposition Zposition Zrotation Xrotation Yrotation
                  JOINT RightHandIndex2
                  {
                    OFFSET -3.6764 0 0
                    CHANNELS 6 Xposition Yposition Zposition Zrotation Xrotation Yrotation
                    End Site
                    {
                      OFFSET -2.8831 0 0
                    }
                  }
                }
                JOINT RightHandThumb1
                {
                  OFFSET -2.4648 -1.5727 2.6826
                  CHANNELS 6 Xposition Yposition Zposition Zrotation Xrotation Yrotation
                  JOINT RightHandThumb2
                  {
                    OFFSET -3.2298 -1.8647 1.8647
                    CHANNELS 6 Xposition Yposition Zposition Zrotation Xrotation Yrotation
                    End Site
                    {
                      OFFSET -2.6526 -1.5314 1.5314
                    }
                  }
                }
              }
            }
          }
        }
      }
    }
  }
  JOINT LeftUpLeg
  {
    OFFSET 8.2078 -6.7517 -1.5996
    CHANNELS 6 Xposition Yposition Zposition Zrotation Xrotation Yrotation
    JOINT LeftLeg
    {
      OFFSET 0 -44.3705 0.2846
      CHANNELS 6 Xposition Yposition Zposition Zrotation Xrotation Yrotation
      JOINT LeftFoot
      {
        OFFSET 0 -44.4279 -2.9822
        CHANNELS 6 Xposition Yposition Zposition Zrotation Xrotation Yrotation
        End Site
        {
          OFFSET 0 -8.7287 10.7106
        }
      }
    }
  }
  JOINT RightUpLeg
  {
    OFFSET -8.2078 -6.7517 -1.5996
    CHANNELS 6 Xposition Yposition Zposition Zrotation Xrotation Yrotation
    JOINT RightLeg
    {
      OFFSET 0 -44.3705 0.2862
      CHANNELS 6 Xposition Yposition Zposition Zrotation Xrotation Yrotation
      JOINT RightFoot
      {
        OFFSET 0 -44.4277 -2.9838
        CHANNELS 6 Xposition Yposition Zposition Zrotation Xrotation Yrotation
        End Site
        {
          OFFSET 0 -8.7287 10.7106
        }
      }
    }
  }
}
MOTION
Frames:	5
Frame Time:	0.0333333
-2.65975 101.343 4.61839 -0.136613 2.5496 -5.79068 -4.44089e-016 10.1816 0.1315 0.443184 18.7239 7.87353 8.88178e-016 10.0835 -1.0008 0.385759 -0.900556 1.02438 8.88178e-016 9.1 -1.3734 0.338341 -0.905306 1.03656 -3.55271e-015 16.6717 -2.5162 -2.40917 1.93742 0.208726 2.22045e-016 9.6179 1.685 -2.40917 1.9374 0.208728 8.88178e-016 7.59293 2.585 -2.40916 1.93743 0.208711 4.5704 10.946 -2.628 6.18932 -0.82035 9.55471 10.5924 -0.5246 -2.2321 -46.7512 18.6418 15.6341 27.8415 -0.0001 -1.42109e-014 -0.000208106 4.95203e-006 -0.167253 28.3288 -2.84217e-014 1.42109e-014 -28.2121 -0.369338 19.2092 2.4661 -1.575 2.6824 6.13845 -1.1463 3.8272 3.2298 -1.8647 1.8647 0.739164 4.04322 7.89737 9.1093 -0.5171 2.2601 -0.704703 0.0361409 -5.87183 3.6764 0 0 -1.8708e-005 1.27751e-006 3.98232e-006 9.5334 -1.42109e-014 0 0.0159815 -3.88185e-007 -0.00192473 3.6982 -1.42109e-014 1.42109e-014 -0.0159758 4.18259e-007 0.00191938 9.1045 -0.0439 -1.8651 0.42329 0.0130172 3.52316 3.154 0 0 -5.68944e-005 6.86703e-006 4.80637e-006 8.0778 -0.4887 -3.8061 1.31227 0.125367 10.8064 3.6 0 0 -0.507968 0.0179822 -4.05448 -4.57 10.9462 -2.628 -2.99407 2.69434 3.41231 -10.5928 -0.5248 -2.2321 24.7879 51.162 49.6622 -27.8415 0 0 -4.58753e-005 1.73504e-006 96.5291 -28.3288 0 0.0001 -3.39252 19.6063 1.03027 -8.0767 -0.4885 -3.806 5.3261 1.68307 -6.88103 -3.6 1.42109e-014 0.0001 17.418 1.4423 -1.56789 -9.1036 -0.0439 -1.8651 5.78387 1.64819 -1.88659 -3.154 0 1.42109e-014 17.4181 1.44205 -1.56935 -9.5325 0 -1.42109e-014 5.8919 1.64576 -0.711783 -3.6982 1.42109e-014 0 17.4181 1.44203 -1.56935 -9.1083 -0.5168 2.2601 6.18898 1.65041 2.51894 -3.6764 0 0 17.4181 1.44205 -1.56936 -2.4648 -1.5727 2.6826 -6.58323 -1.43646 -3.76368 -3.2298 -1.8647 1.8647 -0.219587 4.67208 -8.61486 8.2078 -6.7517 -1.5996 -0.505471 -47.7548 -0.526164 8.88178e-016 -44.3705 0.2846 176.168 70.8681 -166.283 -1.77636e-015 -44.4279 -2.9822 -24.8952 6.87114 15.39 -8.2078 -6.7517 -1.5996 -5.92024 -29.9593 -13.9472 -1.77636e-015 -44.3705 0.2862 8.43498 48.4146 3.22663 -4.44089e-016 -44.4277 -2.9838 20.4992 6.94436 -2.25165 
-5.05682 101.619 6.14558 -2.7958 5.38688 -6.91577 1.77636e-015 10.1816 0.1315 4.7409 12.2142 6.09443 2.22045e-016 10.0835 -1.0008 -0.881816 0.317244 0.859952 9.71445e-016 9.1 -1.3734 -0.906213 0.324858 0.877224 4.44089e-016 16.6717 -2.5162 -2.62758 1.93418 -0.216394 0 9.6179 1.685 -2.62759 1.93424 -0.216391 -1.77636e-015 7.59293 2.585 -2.62757 1.93422 -0.216415 4.5704 10.946 -2.628 6.92139 -0.83329 9.84884 10.5924 -0.5246 -2.2321 -42.6492 26.5342 18.5454 27.8415 -0.0001 -1.42109e-014 -0.000200509 6.07709e-006 -2.83596 28.3288 -2.84217e-014 0 -30.5961 -2.5397 16.6815 2.4661 -1.575 2.6824 6.13847 -1.14631 3.82719 3.2298 -1.8647 1.8647 0.739164 4.04322 7.89737 9.1093 -0.5171 2.2601 -0.704703 0.0361369 -5.87184 3.6764 0 -1.42109e-014 0 0 -9.54166e-015 9.5334 0 0 0.0159823 2.0434e-006 -0.0019269 3.6982 -1.42109e-014 0 -0.0159855 -4.16284e-006 0.00192489 9.1045 -0.0439 -1.8651 0.423289 0.013032 3.52316 3.154 -1.42109e-014 0 -6.82496e-005 7.09462e-007 6.72924e-007 8.0778 -0.4887 -3.8061 1.31228 0.125358 10.8064 3.6 1.42109e-014 0 -0.507955 0.0179911 -4.05448 -4.57 10.9462 -2.628 -5.46099 2.5628 4.77581 -10.5928 -0.5248 -2.2321 24.0017 47.3654 45.508 -27.8415 -7.10543e-015 0 -4.06936e-014 3.29652e-013 104.074 -28.3288 0 0.0001 -2.46206 17.0855 1.90014 -8.0767 -0.4885 -3.806 5.3261 1.68307 -6.88103 -3.6 0 0.0001 17.418 1.4423 -1.56789 -9.1036 -0.0439 -1.8651 5.78387 1.64819 -1.88659 -3.154 -1.42109e-014 0 17.4181 1.44205 -1.56935 -9.5325 1.42109e-014 1.42109e-014 5.8919 1.64576 -0.711783 -3.6982 0 -1.42109e-014 17.4181 1.44203 -1.56934 -9.1083 -0.5168 2.2601 6.18898 1.65041 2.51894 -3.6764 1.42109e-014 0 17.4181 1.44202 -1.56935 -2.4648 -1.5727 2.6826 -6.58323 -1.43646 -3.76368 -3.2298 -1.8647 1.8647 -0.219587 4.67208 -8.61486 8.2078 -6.7517 -1.5996 6.69539 -45.6035 0.135243 0 -44.3705 0.2846 171.629 80.8795 -161.13 0 -44.4279 -2.9822 -19.9487 4.85666 16.924 -8.2078 -6.7517 -1.5996 -5.81662 -33.424 -14.0706 -1.77636e-015 -44.3705 0.2862 5.32469 49.9621 5.35784 0 -44.4277 -2.9838 32.0388 14.0122 2.45604 
-7.7782 101.977 7.1391 -1.00046 1.67939 -8.35919 -1.77636e-015 10.1816 0.1315 2.54212 15.9347 6.02503 -6.66134e-016 10.0835 -1.0008 -1.70303 -0.783055 0.912785 1.77636e-015 9.1 -1.3734 -1.74093 -0.763407 0.886372 -8.88178e-016 16.6717 -2.5162 -2.8376 2.49538 -0.406709 -1.77636e-015 9.6179 1.685 -2.8376 2.49538 -0.406709 3.55271e-015 7.59293 2.585 -2.8376 2.49539 -0.406709 4.5704 10.946 -2.628 7.61442 -0.776909 9.64171 10.5924 -0.5246 -2.2321 -40.016 36.6545 17.4418 27.8415 -0.0001 0 -0.000204007 6.30508e-006 -2.33824 28.3288 -2.84217e-014 1.42109e-014 -32.5199 -1.26027 15.0311 2.4661 -1.575 2.6824 6.13847 -1.14631 3.8272 3.2298 -1.8647 1.8647 0.739164 4.04322 7.89737 9.1093 -0.5171 2.2601 -0.70471 0.0361312 -5.87184 3.6764 0 -2.84217e-014 2.0039e-005 2.10598e-006 -2.97875e-006 9.5334 0 0 0.0159802 4.81319e-006 -0.0019256 3.6982 0 0 -0.00248393 -1.14194e-005 0.000292948 9.1045 -0.0439 -1.8651 0.423307 0.0130141 3.52314 3.154 0 0 -2.13379e-005 2.69103e-006 5.09111e-007 8.0778 -0.4887 -3.8061 1.31228 0.125367 10.8064 3.6 0 0 -0.494503 0.0170231 -4.05611 -4.57 10.9462 -2.628 -7.29489 2.38242 5.44856 -10.5928 -0.5248 -2.2321 22.3646 43.1227 40.4457 -27.8415 -1.42109e-014 0 9.19681e-007 -7.43552e-006 104.102 -28.3288 0 0.0001 -0.695646 15.6858 5.4643 -8.0767 -0.4885 -3.806 5.3261 1.68307 -6.88103 -3.6 -1.42109e-014 0.0001 17.418 1.44232 -1.5679 -9.1036 -0.0439 -1.8651 5.78387 1.64819 -1.88659 -3.154 0 -7.10543e-015 17.4181 1.44204 -1.56935 -9.5325 0 0 5.8919 1.64576 -0.711783 -3.6982 0 0 17.4181 1.44204 -1.56935 -9.1083 -0.5168 2.2601 6.18898 1.65041 2.51894 -3.6764 0 7.10543e-015 17.4181 1.44204 -1.56935 -2.4648 -1.5727 2.6826 -6.58323 -1.43646 -3.76368 -3.2298 -1.8647 1.8647 -0.219587 4.67208 -8.61486 8.2078 -6.7517 -1.5996 12.387 -33.6646 1.58623 3.55271e-015 -44.3705 0.2846 9.10867 81.7792 1.51293 -3.55271e-015 -44.4279 -2.9822 -13.5769 1.2824 16.0938 -8.2078 -6.7517 -1.5996 -11.0147 -31.6566 -13.4068 -3.55271e-015 -44.3705 0.2862 -1.01973 51.201 10.0562 3.55271e-015 -44.4277 -2.9838 24.3195 8.90706 0.533418 
-10.5111 101.717 8.15428 0.380359 -2.89156 -8.42197 1.77636e-015 10.1816 0.1315 -0.701874 21.7729 7.0707 8.88178e-016 10.0835 -1.0008 -1.69242 -3.09859 1.03851 0 9.1 -1.3734 -1.77039 -3.07062 0.977417 0 16.6717 -2.5162 -3.15957 3.30416 -0.486634 0 9.6179 1.685 -3.15957 3.30414 -0.486635 0 7.59293 2.585 -3.15952 3.30425 -0.486614 4.5704 10.946 -2.628 8.24351 -0.640137 8.74803 10.5924 -0.5246 -2.2321 -40.9114 42.3355 12.6584 27.8415 -0.0001 -1.42109e-014 -0.000202665 4.78092e-006 -0.766653 28.3288 1.42109e-014 0 -33.4865 2.66429 14.1053 2.4661 -1.575 2.6824 6.13845 -1.1463 3.82719 3.2298 -1.8647 1.8647 0.739164 4.04322 7.89737 9.1093 -0.5171 2.2601 -0.7047 0.0361397 -5.87184 3.6764 0 0 -0.00272981 -6.21116e-006 0.000322601 9.5334 -7.10543e-015 -1.42109e-014 0.0159835 4.06523e-006 -0.00191848 3.6982 0 -1.42109e-014 -0.0182365 -5.71242e-006 0.00218766 9.1045 -0.0439 -1.8651 0.423297 0.0130155 3.52315 3.154 0 -1.42109e-014 -0.00270389 -5.77055e-006 0.000328429 8.0778 -0.4887 -3.8061 1.31229 0.125369 10.8064 3.6 7.10543e-015 0 -0.510226 0.0181367 -4.05421 -4.57 10.9462 -2.628 -8.91982 2.01135 5.10144 -10.5928 -0.5248 -2.2321 19.007 40.0938 37.8834 -27.8415 1.42109e-014 0 -7.60296e-005 -4.00789e-006 97.5465 -28.3288 0 0.0001 2.09971 15.1289 9.93882 -8.0767 -0.4885 -3.806 5.3261 1.68307 -6.88103 -3.6 0 0.0001 17.418 1.44232 -1.56792 -9.1036 -0.0439 -1.8651 5.78387 1.64819 -1.88659 -3.154 1.42109e-014 7.10543e-015 17.4181 1.44205 -1.56936 -9.5325 1.42109e-014 0 5.8919 1.64576 -0.711783 -3.6982 0 -7.10543e-015 17.4181 1.44205 -1.56936 -9.1083 -0.5168 2.2601 6.18898 1.65041 2.51894 -3.6764 1.42109e-014 0 17.4181 1.44204 -1.56935 -2.4648 -1.5727 2.6826 -6.58323 -1.43646 -3.76368 -3.2298 -1.8647 1.8647 -0.219587 4.67208 -8.61486 8.2078 -6.7517 -1.5996 18.1831 -19.6121 3.76794 0 -44.3705 0.2846 2.45148 60.6473 8.17037 0 -44.4279 -2.9822 -6.70856 -2.26244 13.9517 -8.2078 -6.7517 -1.5996 -15.5926 -28.5201 -12.6589 3.55271e-015 -44.3705 0.2862 -8.88087 49.0631 15.6853 0 -44.4277 -2.9838 14.0304 4.74573 -0.00363625 
-13.0904 100.731 9.27542 -0.289742 -5.55876 -7.57459 0 10.1816 0.1315 -1.96088 22.5321 6.68831 0 10.0835 -1.0008 -0.146253 -2.99486 0.907298 0 9.1 -1.3734 -0.213385 -2.99026 0.890475 -1.77636e-015 16.6717 -2.5162 -3.3918 3.21516 -0.623651 0 9.6179 1.685 -3.39181 3.21522 -0.623647 0 7.59293 2.585 -3.39185 3.21509 -0.623706 4.5704 10.946 -2.628 8.81297 -0.451741 7.35245 10.5924 -0.5246 -2.2321 -42.9782 39.4297 6.42136 27.8415 -0.0001 0 -0.000212712 2.27107e-006 -0.00726837 28.3288 1.42109e-014 0 -32.9456 7.62046 13.7454 2.4661 -1.575 2.6824 6.13847 -1.14631 3.8272 3.2298 -1.8647 1.8647 0.739164 4.04322 7.89737 9.1093 -0.5171 2.2601 -0.704697 0.0361288 -5.87183 3.6764 1.42109e-014 0 -0.0405535 3.1864e-007 0.00487506 9.5334 -7.10543e-015 0 0.015981 -6.61263e-006 -0.00192954 3.6982 -7.10543e-015 0 -0.0565187 -1.08227e-006 0.00680062 9.1045 -0.0439 -1.8651 0.4233 0.0130051 3.52315 3.154 0 2.84217e-014 -0.0405233 5.05927e-006 0.00486874 8.0778 -0.4887 -3.8061 1.3123 0.125353 10.8064 3.6 7.10543e-015 -1.42109e-014 -0.548389 0.0208337 -4.04961 -4.57 10.9462 -2.628 -10.2806 1.57529 4.29843 -10.5928 -0.5248 -2.2321 14.4793 39.2136 39.3264 -27.8415 0 -1.42109e-014 7.81873e-005 -7.85013e-006 86.5578 -28.3288 -1.42109e-014 0.0001 5.65207 15.006 13.903 -8.0767 -0.4885 -3.806 5.3261 1.68307 -6.88103 -3.6 -1.42109e-014 0.0001 17.4181 1.44229 -1.5679 -9.1036 -0.0439 -1.8651 5.78387 1.64819 -1.88659 -3.154 0 -3.55271e-015 17.4181 1.44203 -1.56935 -9.5325 0 7.10543e-015 5.8919 1.64576 -0.711783 -3.6982 0 3.55271e-015 17.4181 1.44203 -1.56934 -9.1083 -0.5168 2.2601 6.18898 1.65041 2.51894 -3.6764 0 0 17.4181 1.44204 -1.56935 -2.4648 -1.5727 2.6826 -6.58323 -1.43646 -3.76368 -3.2298 -1.8647 1.8647 -0.219587 4.67208 -8.61486 8.2078 -6.7517 -1.5996 25.3703 -8.35143 7.20231 0 -44.3705 0.2846 0.87105 40.2317 8.62336 0 -44.4279 -2.9822 -2.23815 -4.26421 5.08761 -8.2078 -6.7517 -1.5996 -16.818 -24.1476 -10.0366 0 -44.3705 0.2862 -12.7917 41.0722 17.3072 0 -44.4277 -2.9838 6.61159 6.6674 1.36072 
